<?xml version="1.0" encoding="UTF-8"?>
<svg id="Layer_2" data-name="Layer 2" xmlns="http://www.w3.org/2000/svg" viewBox="0 0 30.78 134.9">
  <defs>
    <style>
      .cls-1 {
        fill: none;
        stroke: #fff;
        stroke-miterlimit: 10;
      }
    </style>
  </defs>
  <g id="Layer_1-2" data-name="Layer 1">
    <g id="Q">
      <path class="cls-1" d="M26.54,16.7l-1.25-1.55-1.17-1.46-1.29-.92-1.12-.67-.75-.46-.79-.33-.96-.29-1.12-.33-1.21-.33h-1.54l-1.67.17-1.75.38-1.25.42-1.08.38-1.62.58-1.62.79-1.29.83-1.21,1.21-1.12,1.12-.79,1.29-.46,1.29-.58,1.46-.38,1.62v3.33l.25,1.54.42,1.67.21,1,5.08,24.62,8.42,38.04.5,1.42,2.83,12.5,3.42,16.24.12.59.29.38.25.33.46.54.33.33.5.58.46.5.5.5.5.46.5.62.58.29.71.46.92.54.96.46.54.33,1.38.46"/>
      <polyline class="cls-1" points="21.63 122.27 21.38 123.03 21 124.15 20.67 124.94 20.33 125.78 19.79 126.48 19.08 127.28 18.46 128.07 17.58 129.03 17 129.65 16.29 130.48 15.54 131.44 14.79 132.28 14 132.9 13.58 133.4 13.04 133.98 12.29 134.48"/>
      <polyline class="cls-1" points="16.22 10.36 16.58 10.07 17.17 9.66 17.69 9.24 18.14 8.77 18.67 8.3 19.08 7.88 19.42 7.41 19.86 6.85 20.14 6.44 20.42 5.94 20.67 5.55 21 5.02 21.33 4.52 21.61 4.07 21.89 3.55 22.17 2.74 22.5 1.8 22.69 1.1 22.81 .52 22.95 .21"/>
    </g>
  </g>
</svg>