<?xml version="1.0" encoding="UTF-8"?>
<svg id="Layer_2" data-name="Layer 2" xmlns="http://www.w3.org/2000/svg" viewBox="0 0 1267 362.27">
  <defs>
    <style>
      .cls-1, .cls-2 {
        fill: #77838f;
      }

      .cls-2 {
        font-family: OptimaDemiBold, Optima;
        font-size: 85px;
      }

      .cls-3, .cls-4 {
        fill: #63003c;
      }

      .cls-4 {
        fill-rule: evenodd;
      }
    </style>
  </defs>
  <g id="Layer_1-2" data-name="Layer 1">
    <text class="cls-2" transform="translate(204.41 339.83) scale(1.06 1)"><tspan x="0" y="0">VIRTUAL</tspan></text>
    <g>
      <path id="path287" class="cls-4" d="M35.95,165.13c0-65.38,35.44-83.04,62.24-83.04,43.07,0,61.71,35.29,61.71,72.93,0,21.5-2.62,41.76-13.41,58.13-10.74,16.33-28.58,26.19-48.04,26.19-48.58-.02-62.5-45.66-62.5-74.21M166.71,298.75c7.84-5.44,20.18-12.19,29.14-16.08l-59.34-36.34c36.49-12.69,59.34-44.88,59.34-88.74,0-62.27-48.07-88.72-97.15-88.72C45.69,68.87,0,97.91,0,163.83c0,13.99,3.14,40.47,25.17,62.51,22.86,22.86,49.9,26.22,72.73,26.22,2.88,0,5.78,0,8.65-.26l60.16,46.45Z"/>
      <path id="path289" class="cls-4" d="M318.3,176.53c-8.14.54-16.02,1.06-24.14,1.06-9.2,0-18.13-.79-27.29-1.06l26.76-63.81,24.67,63.81M348,248.95c4.72-.28,12.05-1.59,19.42-1.59s16.54,1.31,20.49,1.59c-11.84-25.19-29.15-64.37-39.14-86.95-9.43-21.8-25.19-58.13-37.8-93.68-2.88.8-5.52,1.33-8.42,1.33-3.14,0-5.78-.52-8.65-1.33-6.31,21.31-21.52,55.03-48.05,113.65l-30.45,66.97c3.7-.52,7.34-1.59,11.82-1.59,4.19,0,9.19,1.05,12.61,1.59,4.19-14.79,12.63-36.36,21-56.32,10.51-.51,21.01-1.03,31.51-1.03,11.27,0,22.32.51,33.61,1.03l11.01,27.51,11.04,28.83Z"/>
      <path id="path291" class="cls-3" d="M464.48,117.39c0-9.88.28-19.7.52-29.07,18.1,0,36.75.29,52.25,1.83-.8-4.16-1.33-6.49-1.33-9.34,0-2.1.52-5.47,1.33-9.86-25.21,1.28-48.31,1.56-70.11,1.56-20.21,0-49.36-.28-70.1-1.56.8,3.1,1.31,6.47,1.31,9.6s-.51,6.49-1.31,9.6c13.4-1.31,38.62-1.83,40.98-1.83h13.12c.28,10.14.52,19.21.52,28.81l.28,72.39c0,19.74-1.59,39.73-2.64,59.45,9.45-1.03,13.38-1.59,17.85-1.59,3.13,0,11.58.8,19.18,1.59-.79-7.27-1.83-15.84-1.83-35.57v-96.01"/>
      <path id="path293" class="cls-4" d="M610.62,176.53c-8.16.54-16.03,1.06-24.16,1.06-9.19,0-18.13-.79-27.33-1.06l26.79-63.81,24.7,63.81M640.28,248.95c4.7-.28,12.07-1.59,19.42-1.59s16.53,1.31,20.46,1.59c-11.82-25.19-29.1-64.37-39.11-86.95-9.43-21.8-25.19-58.13-37.8-93.68-2.92.8-5.54,1.33-8.42,1.33-3.13,0-5.77-.52-8.66-1.33-6.29,21.31-21.5,55.03-48.04,113.65l-30.43,66.97c3.67-.52,7.34-1.59,11.79-1.59,4.21,0,9.17,1.05,12.63,1.59,4.23-14.79,12.61-36.36,21-56.32,10.48-.51,20.98-1.03,31.49-1.03,11.3,0,22.31.51,33.62,1.03l11.02,27.51,11.02,28.83Z"/>
      <path id="path295" class="cls-4" d="M785.91,160.72c23.88-4.42,45.66-19.21,45.66-48.02,0-10.91-4.21-21.54-12.07-29.05-11.27-10.63-24.16-12.69-41.22-12.69-6.03,0-36.47,1.28-43.32,1.28-13.38,0-20.21-.79-26.27-1.28,1.85,33.46,1.85,37.1,1.85,71.1,0,50.07-.28,55.77-2.37,106.9,5.78-.79,12.07-1.59,18.1-1.59,6.57,0,12.35,1.05,17.61,1.59,0-6.76-1.05-40.22-1.05-47.76v-36.83h6.29c14.18,19.7,30.46,42.55,43.86,63.05,3.91,5.98,9.73,15.56,13.66,21.54,7.88-1.03,11.02-1.59,21.26-1.59,9.45,0,16.02.8,23.35,1.59-16.54-20.51-23.62-29.59-44.35-58.39-3.93-5.45-9.73-14.02-13.66-19.46l-7.32-10.38M742.85,84.94c3.93-.25,13.63-1.29,18.64-1.29,8.66,0,17.33,1.29,24.42,6.49,9.19,6.75,11.01,16.07,11.01,26.96,0,16.87-9.7,35.83-35.95,35.83-6.83,0-13.14-.52-18.1-.79v-67.2h-.02Z"/>
      <path id="path297" class="cls-1" d="M1178.34,161.21c0,1.65-23.76,3.23-57.67,4.55-5.98-3.37-10.55-6.75-13.86-9.65,41.12,1.46,71.52,3.21,71.52,5.09"/>
      <path id="path299" class="cls-1" d="M1153.99,104.61c0,1.38-19.95,2.7-48.4,3.82,4.09-2.37,8.3-4.73,12.68-7.12,21.54,1.02,35.72,2.13,35.72,3.31"/>
      <path id="path301" class="cls-1" d="M941.79,226.4c-13.18.15-24.75.21-33.79.21-12.97,0-23.5-3.95-23.5-8.88s10.53-8.81,23.5-8.81c11.55,0,27.14.11,45.01.34-6.91,9.88-10.22,15.8-10.51,16.15-.2.28-.44.62-.7.98"/>
      <path id="path303" class="cls-1" d="M948.89,238.25c4.39,5.18,8.53,9.55,14.12,14.31,0,0,2.1,2.96,8.48.41,6.49-2.59,11.99-6.17,18.21-14.4,18.11.29,37.37.7,56.29,1.13,1.57,2.23,4.72,6.86,8.63,12.59-52.77,1.36-110.04,2.16-139.38,2.16-12.23,0-22.14-3.75-22.14-8.35s9.89-8.34,22.14-8.34c8.93,0,20.42.07,33.62.23-.03.11.02.25.02.25"/>
      <path id="path305" class="cls-1" d="M928.48,281.75c-10.84,0-19.62-3.31-19.62-7.37s8.78-7.39,19.62-7.39c28.71,0,87.51.87,137.89,2.28,2.42,3.44,4.85,6.86,7.17,9.99-51.89,1.49-114.99,2.49-145.06,2.49"/>
      <path id="path307" class="cls-1" d="M1095.78,305.37c-42.3,1.83-115.02,3.08-145.26,3.08-8.52,0-15.41-2.62-15.41-5.8s6.91-5.8,15.41-5.8c28.92,0,96.78,1.1,139.62,2.82,1.93,2.05,3.83,3.96,5.63,5.7"/>
      <path id="path309" class="cls-1" d="M985.41,321.06c24.94,0,100.92,1.87,100.92,4.11s-75.98,4.11-100.92,4.11c-4.88,0-8.79-1.8-8.79-4.11s3.93-4.11,8.79-4.11"/>
      <path id="path311" class="cls-1" d="M985.69,169.25c-31.38.52-59.57.84-77.68.84-12.97,0-23.5-3.98-23.5-8.86s10.53-8.88,23.5-8.88c21.06,0,55.64.41,93.12,1.1-5.58,5.44-10.73,10.73-15.44,15.8"/>
      <path id="path313" class="cls-1" d="M1139.75,129.67c18.41.98,29.97,2.05,29.97,3.18,0,1.24-14,2.42-35.7,3.5,4.65-3.47,5.65-6.49,5.73-6.68"/>
      <path id="path315" class="cls-1" d="M915.25,141.18c-12.23,0-22.14-3.75-22.14-8.34s9.89-8.35,22.14-8.35c25.06,0,70.56.61,116.18,1.62-5.58,4.65-10.91,9.27-15.92,13.81-40.04.79-78.11,1.26-100.27,1.26"/>
      <path id="path317" class="cls-1" d="M1051.61,110.1c-46.66,1.16-97.2,1.88-123.15,1.88-10.84,0-19.62-3.29-19.62-7.37s8.78-7.4,19.62-7.4c28.63,0,87.28.9,137.59,2.31-2.51,1.79-5.06,3.6-7.6,5.49-2.31,1.69-4.6,3.41-6.85,5.09"/>
      <path id="path319" class="cls-1" d="M950.52,82.11c-8.52,0-15.41-2.59-15.41-5.8s6.91-5.8,15.41-5.8c32.07,0,112.12,1.38,152.74,3.39-2.59,1.69-5.16,3.42-7.8,5.16-42.35,1.82-114.81,3.05-144.94,3.05"/>
      <path id="path321" class="cls-1" d="M905.58,198.51c-13.22,0-23.94-4.01-23.94-9.04s10.73-8.99,23.94-8.99c16.61,0,41.39.25,69.48.66-5.29,6.13-9.86,11.81-13.79,16.9-22.32.29-41.86.47-55.68.47"/>
      <path id="path323" class="cls-1" d="M976.61,53.79c0-2.29,3.91-4.11,8.79-4.11,24.94,0,100.92,1.82,100.92,4.11s-75.98,4.13-100.92,4.13c-4.86,0-8.79-1.87-8.79-4.13"/>
      <path id="path325" class="cls-3" d="M1180.85,182.82c.18,4.47.15,8.96-.07,13.32-44.24,1.72-86.13,4.37-86.13,7.32s40.98,5.52,84.67,7.24c-.79,4.98-1.77,9.88-3,14.66-43.06,1.75-83.02,4.31-83.02,7.19s37.29,5.27,78.65,7.03c-1.92,5.19-4.06,10.27-6.49,15.13-35.47,1.67-64.81,3.93-64.81,6.39,0,2.29,25.63,4.42,57.91,6.04-1.79,2.92-3.7,5.8-5.67,8.5-2.1,2.95-4.37,5.85-6.81,8.71-20.19,1.54-34.03,3.23-34.03,5.09,0,1.57,9.93,3.06,25.21,4.39-8.35,8.17-18.21,15.8-29.82,22.44,0,0-13.72-11.64-24.98-25.25-10.09-12.14-31.43-44.11-36.51-51.28-5.03-7.17-8.32-9.27-14.2-7.17-7.89,2.75-17.08,4.16-19.92,4.16s-4.37-1.1.38-2.96c4.7-1.87,23.34-10.58,32.48-28.53,10.32-20.21,1.24-48.15,1.24-48.15-3.44,14.92-11.28,20.51-11.28,20.51,2.52-13.86-.25-26.43-7.17-35.26l-3.87,17.56s-2.42-.11-8.4,4.85c-5.99,4.98-7.63,12.23-7.63,12.23,4.72,1.87,10.37-2.78,10.37-2.78-7.22,26.71-17.57,48.46-25.16,59.98-7.55,11.5-13.77,15.84-21.34,18.85-6.39,2.54-8.48-.41-8.48-.41-5.58-4.77-9.74-9.14-14.12-14.31,0,0-.34-.61.84-.57,3.13.03,8.66-5.24,9.89-7.4,1.38-2.49,1.23-4.41.51-4.54-.66-.13-1.85,1.85-7.84,5.62-5.99,3.73-8.73,1.11-10.71-.95-1.54-1.65-.05-3.7.95-5,.9-1.13,32.44-59.3,115.97-120.41C1167.91,24.92,1237.78,3.31,1241.77,1.74c2.65-1.03,6.98-2.39,7.94-1.39,1.1,1.11,1.62,2.01,1.47,3.32-.13,1.29-.85,1.97-5.9,4.16-42.01,18.29-91.04,48.79-118.92,66.54-34.26,16.51-66.97,40.06-68.18,40.62-2.64,1.62-.69,3.96.92,3,57.86-38.05,125.75-63.94,200.69-85.18,3.59-1.03,5.55-1.03,6.14-.21.66.85.95,1.83,1.05,2.93.1,1.36-1.03,2.08-4.11,3.28-80.53,29.56-139.9,57.01-178.09,82.41,0,0-3.96,2.36-4,5.09-.02,1.03,2.13,1.15,2.13,1.15,19.13.34,44.66,1.47,56.81,2.16,0,0-1.74,6.09-13.38,10.99-8.99,3.77-17.28,3.16-25.53,3.24-1.85-.05-3.37,1.79-1.92,3.73.75.97,18.28,28.84,81.94,35.23"/>
      <path id="path327" class="cls-3" d="M597.22,328.58h-10.79s-1.47-6.55,2.42-9.09c3.93-2.54,8.37-4.49,8.37-4.49v13.58M648.42,304.01s-6.57,3.73-10.71,7.37c-4.14,3.62.85,5.01.85,5.01v12.19h-31.33v-42.68s-11.4,10.38-12.46,11.76c-1.1,1.47,2.7,2.8,2.7,2.8l-.64,4.03s-4.54,2.34-10.07,6.04c-5.49,3.64-9.55,8.27-9.55,11.5s-1.38,15.9-1.38,15.9h72.6v-33.92h-.02ZM583.59,288.39c3.57,0,6.09-1.39,6.09-4.19s-1.7-4.8-6.09-4.8c-3.93,0-4.98,1.7-4.98,4.8.02,3.11,1.34,4.19,4.98,4.19ZM596.94,288.39c3.62,0,6.04-1.39,6.04-4.19s-1.65-4.8-6.04-4.8c-3.95,0-4.98,1.7-4.98,4.8s1.36,4.19,4.98,4.19ZM617.15,341.58c-3.88,0-4.98,1.67-4.98,4.77s1.39,4.21,4.98,4.21,6.13-1.39,6.13-4.21-1.65-4.77-6.13-4.77ZM631.04,341.58c-3.91,0-4.98,1.67-4.98,4.77s1.41,4.21,4.98,4.21,6.11-1.39,6.11-4.21-1.65-4.77-6.11-4.77ZM787.45,287.57c3.6,0,6.11-1.38,6.11-4.19s-1.65-4.78-6.11-4.78c-3.88,0-4.95,1.69-4.95,4.78s1.38,4.19,4.95,4.19ZM801.32,287.57c3.57,0,6.08-1.38,6.08-4.19s-1.69-4.78-6.08-4.78c-3.93,0-5,1.69-5,4.78.02,3.13,1.38,4.19,5,4.19ZM839.6,288.73c-1.95,1.67-1.38,3.69,1.1,3.39v45.87h10.29v-57.11s-9.47,6.16-11.38,7.84ZM798.26,314.46h-6.63c0-3.64,6.63-5.63,6.63-5.63v5.63ZM754.43,322.03c0,1.67-.08,4.37-.15,6.55h-58.11v-10.11c1.52-3.87,4.09-4.32,8.06-4.32h42.45c9.17,0,7.75,4.75,7.75,7.88ZM822.38,292.09v36.51h-13.84v-33.15s-2.83,1.06-6.7,2.77c-3.83,1.7-17.75,7.29-17.75,14.84v8.73h14.15v6.81h-33.62c.05-1.61.07-3.96.07-7.4,0-10.89-9.37-16.8-17.74-16.8h-38.85c-6.8,0-10.09,1.64-11.94,3.49v-28.1s-6.06,4.21-10.53,7.55c-4.44,3.36,0,5.62,0,5.62v35.67h-12.73l-.29-30.61s-8.84,6.4-11.38,8.35c-2.49,1.93-1.1,3.67,1.67,3.67,0,0-.51,22.62-.51,27.94s-4.45,11.5-13.92,8.71c0,0-3.01.56-.51,2.8,2.49,2.23,5.49,3.91,8.83,3.91s15.56-2.29,15.56-15.43h160.26v-57.08s-9.42,6.16-11.35,7.84c-1.95,1.62-1.39,3.62,1.13,3.36Z"/>
    </g>
  </g>
</svg>