<?xml version="1.0" standalone="no"?>
<!DOCTYPE svg PUBLIC "-//W3C//DTD SVG 20010904//EN"
 "http://www.w3.org/TR/2001/REC-SVG-20010904/DTD/svg10.dtd">
<svg version="1.0" xmlns="http://www.w3.org/2000/svg"
 width="1200.000000pt" height="600.000000pt" viewBox="0 0 1200.000000 600.000000"
 preserveAspectRatio="xMidYMid meet">

<g transform="translate(0.000000,600.000000) scale(0.100000,-0.100000)"
fill="#000000" stroke="none">
<path d="M11450 5989 c-79 -15 -183 -74 -238 -134 -127 -139 -154 -325 -72
-492 55 -111 172 -204 295 -233 28 -7 60 -19 72 -26 21 -13 23 -12 32 24 6 20
11 80 11 132 0 129 4 133 81 92 47 -25 64 -30 75 -21 8 7 29 8 54 4 l40 -7
-16 37 c-8 21 -13 44 -9 53 3 8 -3 23 -15 34 -29 28 -25 37 28 60 58 26 56 23
44 45 -8 14 -5 28 14 61 l25 42 -45 0 c-34 0 -49 5 -58 19 -11 19 -13 18 -54
-11 -23 -16 -50 -28 -60 -26 -17 3 -19 12 -16 76 1 47 -1 71 -8 67 -19 -12
-47 14 -64 60 -10 25 -21 45 -25 45 -4 0 -18 -22 -31 -49 -23 -49 -42 -67 -61
-55 -6 4 -9 -22 -7 -67 3 -65 1 -74 -16 -77 -10 -2 -37 10 -60 26 -42 30 -43
30 -59 11 -12 -13 -30 -19 -57 -19 -22 0 -40 -3 -40 -6 0 -3 10 -19 21 -36 15
-20 20 -38 16 -58 -6 -26 -3 -30 28 -40 20 -6 42 -19 51 -27 14 -14 13 -18 -7
-39 -12 -13 -19 -30 -16 -38 4 -9 -1 -32 -9 -52 l-15 -36 41 7 c24 4 46 3 54
-4 9 -8 29 -2 73 22 34 17 65 28 70 23 10 -9 9 -116 -1 -170 -7 -38 -8 -38
-46 -33 -109 14 -229 106 -283 216 -30 61 -32 73 -32 166 0 92 3 106 32 167
40 85 106 151 191 191 61 29 76 32 162 32 87 0 101 -3 161 -32 181 -90 271
-291 209 -472 -46 -136 -143 -229 -273 -262 -40 -9 -47 -15 -47 -35 0 -29 2
-29 79 -5 84 26 137 60 199 125 199 210 138 554 -121 681 -105 51 -192 64
-297 44z"/>
<path d="M7081 5810 c-146 -31 -220 -129 -208 -275 11 -150 104 -225 282 -232
52 -2 113 2 145 9 54 13 55 14 58 51 2 20 2 37 0 37 -2 0 -25 -7 -52 -15 -57
-17 -162 -20 -203 -4 -38 14 -83 57 -99 96 -34 78 -6 199 56 243 50 35 197 38
283 5 14 -6 17 -1 17 33 0 37 -2 40 -32 46 -60 12 -202 15 -247 6z"/>
<path d="M5217 5768 c-8 -18 -53 -124 -101 -235 -47 -111 -86 -207 -86 -213 0
-7 14 -10 36 -8 34 3 37 7 63 68 l27 65 110 3 111 3 31 -71 31 -70 61 0 c46 0
61 3 57 13 -3 6 -49 117 -102 245 l-98 232 -63 0 c-62 0 -64 -1 -77 -32z m92
-150 c18 -46 36 -89 38 -95 4 -10 -15 -13 -76 -13 -45 0 -81 3 -81 7 0 12 75
183 80 183 3 0 20 -37 39 -82z"/>
<path d="M5712 5558 l3 -243 53 -3 52 -3 0 245 0 246 -55 0 -55 0 2 -242z"/>
<path d="M6070 5555 l0 -245 50 0 50 0 0 105 0 105 53 0 52 0 82 -105 83 -105
61 0 c71 0 76 -15 -40 135 -70 91 -73 97 -55 110 11 8 22 15 27 15 17 0 47 68
47 105 0 51 -22 82 -74 106 -34 15 -66 19 -188 19 l-148 0 0 -245z m270 172
c30 -15 45 -54 36 -91 -9 -37 -58 -56 -141 -56 l-65 0 0 80 0 80 73 0 c39 0
83 -6 97 -13z"/>
<path d="M7695 5764 c-8 -20 -53 -127 -100 -238 -47 -111 -85 -205 -85 -210 0
-4 16 -6 37 -4 34 3 38 6 64 68 l27 65 112 0 112 0 27 -65 28 -65 61 -3 c34
-2 62 0 62 3 0 5 -164 400 -191 458 -11 25 -17 27 -75 27 -64 0 -64 0 -79 -36z
m92 -142 c18 -42 35 -85 39 -94 6 -16 -2 -18 -76 -18 -62 0 -81 3 -77 13 36
92 73 177 77 177 3 0 19 -35 37 -78z"/>
<path d="M8210 5555 l0 -245 40 0 40 0 0 180 c0 99 4 180 8 180 4 0 77 -81
160 -180 l153 -180 54 0 55 0 0 245 0 245 -45 0 -45 0 -2 -172 -3 -172 -144
172 -145 172 -63 0 -63 0 0 -245z"/>
<path d="M9075 5764 c-8 -20 -53 -127 -100 -238 -47 -111 -85 -205 -85 -210 0
-4 16 -6 36 -4 34 3 37 7 63 68 l28 65 113 0 114 0 26 -65 26 -65 62 -3 c34
-2 62 -1 62 1 0 2 -43 107 -96 233 -53 126 -98 235 -101 242 -3 8 -27 12 -69
12 -64 0 -64 0 -79 -36z m92 -142 c18 -42 35 -85 39 -94 6 -16 -2 -18 -75 -18
-45 0 -81 3 -81 7 0 12 75 183 80 183 3 0 19 -35 37 -78z"/>
<path d="M9580 5555 l0 -248 153 5 c173 5 219 19 273 80 42 48 58 99 58 179 0
91 -32 153 -98 194 -49 30 -51 30 -218 33 l-168 4 0 -247z m296 159 c51 -38
68 -70 72 -139 8 -130 -55 -195 -191 -195 l-67 0 0 181 0 181 79 -3 c61 -3 86
-9 107 -25z"/>
<path d="M10391 5778 c-5 -13 -50 -119 -100 -237 -50 -118 -91 -218 -91 -222
0 -5 15 -9 34 -9 32 0 35 3 65 70 l31 70 108 0 109 0 31 -70 31 -70 61 0 c46
0 61 3 57 13 -2 6 -48 117 -102 245 l-98 232 -64 0 c-57 0 -64 -2 -72 -22z
m93 -177 c20 -47 36 -86 36 -88 0 -2 -36 -3 -80 -3 -44 0 -80 3 -80 7 0 20 74
183 80 176 4 -4 24 -46 44 -92z"/>
<path d="M9755 4950 c-324 -49 -663 -332 -815 -677 -131 -297 -157 -662 -70
-972 76 -272 267 -503 518 -630 167 -84 332 -117 542 -108 301 13 594 106 834
264 110 73 240 207 275 284 37 82 71 193 71 231 l0 30 -57 -52 c-79 -71 -228
-169 -349 -229 -219 -110 -382 -141 -630 -121 -179 14 -286 39 -404 97 -80 38
-108 59 -180 132 -116 117 -170 230 -195 404 l-7 47 84 0 c159 0 341 31 505
85 266 89 452 234 549 430 53 109 73 182 81 298 20 295 -196 470 -607 490 -52
3 -118 2 -145 -3z m190 -389 c115 -57 146 -133 111 -272 -57 -221 -284 -371
-621 -409 -49 -5 -104 -10 -122 -10 l-32 0 5 53 c16 158 69 332 135 443 50 83
140 170 212 205 58 28 68 30 154 26 79 -4 103 -9 158 -36z"/>
<path d="M3249 4939 c-98 -11 -189 -70 -299 -195 l-45 -51 -50 48 c-90 86
-241 159 -329 159 -47 0 -142 -49 -227 -118 -197 -158 -397 -459 -484 -726
-60 -188 -88 -432 -74 -647 27 -391 236 -701 544 -805 106 -36 294 -45 407
-20 148 33 282 120 448 292 405 419 709 1071 713 1529 1 132 -14 205 -60 284
-101 173 -320 274 -544 250z m51 -425 c148 -33 224 -127 244 -301 27 -226
-178 -641 -440 -893 -104 -100 -157 -138 -257 -185 -186 -88 -349 -87 -521 3
-202 105 -299 308 -268 559 30 237 178 539 327 671 68 60 145 96 192 89 137
-20 135 -20 195 12 l56 30 16 -24 c23 -36 83 -33 205 9 147 51 156 52 251 30z"/>
<path d="M4225 4928 c-94 -49 -228 -174 -242 -225 -12 -42 -7 -588 6 -743 53
-625 182 -1062 375 -1277 25 -27 73 -65 108 -84 58 -32 69 -34 153 -34 112 0
201 30 325 109 251 161 552 528 707 863 l36 77 26 -89 c82 -276 316 -741 471
-936 63 -79 129 -129 170 -129 70 0 183 121 230 247 37 100 36 103 -164 413
-48 74 -111 185 -141 245 -106 220 -208 532 -260 797 -14 73 -30 156 -36 185
-13 65 -41 103 -77 103 -34 -1 -55 -13 -124 -73 -91 -80 -126 -134 -160 -249
-55 -191 -152 -403 -258 -567 -139 -215 -448 -447 -609 -459 -51 -4 -61 -1
-89 23 -93 78 -150 277 -188 655 -9 92 -19 330 -23 590 -8 440 -11 469 -48
527 -16 25 -81 53 -121 53 -15 -1 -45 -10 -67 -22z"/>
<path d="M7291 4934 c-230 -62 -486 -330 -666 -698 -115 -235 -166 -425 -166
-617 0 -226 48 -408 141 -544 121 -176 278 -234 554 -206 320 34 599 149 949
395 60 42 113 76 118 76 28 0 77 -181 108 -395 42 -285 55 -477 55 -810 1
-435 -23 -649 -120 -1084 -74 -333 -142 -516 -226 -607 -33 -36 -47 -44 -76
-44 -56 0 -116 36 -187 112 -52 56 -79 99 -134 212 -164 332 -269 799 -290
1289 -5 109 -12 201 -15 204 -28 28 -379 -188 -420 -259 -43 -72 -5 -418 84
-753 94 -356 244 -671 413 -868 195 -228 387 -331 618 -332 102 0 107 1 183
39 244 120 424 465 555 1062 137 626 154 1331 45 1879 -74 371 -242 756 -350
801 -41 17 -56 12 -124 -46 -118 -100 -343 -237 -484 -295 -245 -101 -536
-153 -683 -122 -181 39 -286 134 -314 284 -19 101 18 337 74 468 82 194 214
323 349 341 74 10 124 -20 254 -152 60 -62 123 -118 138 -124 95 -36 311 32
396 124 23 25 25 35 24 119 0 128 -24 186 -117 284 -121 127 -308 235 -466
269 -83 17 -151 17 -220 -2z"/>
<path d="M1680 4921 c-151 -50 -343 -174 -720 -465 -85 -66 -204 -162 -263
-214 l-108 -93 -67 62 c-87 80 -183 142 -260 168 -79 27 -89 27 -143 -7 -66
-42 -102 -95 -106 -156 -8 -97 88 -575 186 -931 125 -454 250 -725 334 -725
67 0 229 133 289 236 41 72 48 143 48 475 0 430 11 497 107 661 64 111 233
280 363 366 108 71 314 178 474 246 126 54 183 86 215 120 61 65 -4 172 -144
237 -81 38 -137 43 -205 20z"/>
</g>
</svg>
